# xmcd
#
# Track frame offsets:
#	183
#	20938
#	36458
#	49508
#	71510
#	93133
#	112658
#	129020
#	147433
#	166858
#	186383
#	198758
#	219375
#	236758
#	253568
#	274283
#	290083
#	310610
#
# Disc length: 4434 seconds
#
# Revision: 1
# Processed by: cddbd v1.5.2PL0 Copyright (c) Steve Scherf et al.
# Submitted via: audiograbber 1.83.01
#
DISCID=03115012
DTITLE=Vari - Mi ritorni in mente CD2
DYEAR=1900
DGENRE=
TTITLE0=Triangolo
TTITLE1=Splendido splendente
TTITLE2=Come sei bella
TTITLE3=Un uomo che ti ama
TTITLE4=Segui lui
TTITLE5=Piccolo uomo
TTITLE6=Ammazzate oh
TTITLE7=A' canzuncella
TTITLE8=Serena
TTITLE9=Aida
TTITLE10=Una storia disonesta
TTITLE11=L'immenso
TTITLE12=La mia banda suona il rock
TTITLE13=Il pagliaccio azzurro
TTITLE14=Le tre campane
TTITLE15=Malattia d'amore
TTITLE16=L'appuntamento
TTITLE17=Solo
EXTD=
EXTT0=
EXTT1=
EXTT2=
EXTT3=
EXTT4=
EXTT5=
EXTT6=
EXTT7=
EXTT8=
EXTT9=
EXTT10=
EXTT11=
EXTT12=
EXTT13=
EXTT14=
EXTT15=
EXTT16=
EXTT17=
PLAYORDER=
